<?xml version="1.0" standalone="yes"?>
<svg xmlns="http://www.w3.org/2000/svg" width="1200" height="1200">
<path style="fill:#010101; stroke:none;" d="M0 0L0 1200L1200 1200L1200 0L0 0z"/>
<path style="fill:#1bb36b; stroke:none;" d="M419 1164L419 1165L417 1165L417 1166L436 1169L436 1170L434 1170L434 1171L517 1186L517 1187L515 1187L515 1188L578 1191L578 1192L576 1192L576 1193C632.664 1193 689.699 1189.29 744.714 1175.55C768.161 1169.69 790.828 1161.33 813.714 1153.63C822.289 1150.75 830.986 1144.81 840 1144L839 1142C845.987 1141.53 853.883 1136.39 860.282 1133.42C876.861 1125.75 892.843 1116.62 908.449 1107.02C973.949 1066.74 1030.69 1015.62 1077.03 954.116C1236.65 742.258 1231.89 430.064 1061.44 225.42C1038.42 197.774 1014.54 171.484 986.514 148.794C943.468 113.949 899.454 84.9895 849.439 61.0355C835.957 54.5786 822.437 49.295 808.428 43.9961C800.324 40.9305 791.752 36.0975 783 36L784 34C751.723 31.4485 721.02 14 688 14L688 13L690 13L690 12L639 9L639 8L641 8C633.841 4.99585 622.744 7 615 7C594.849 7 574.797 6.54224 554.961 8.87109C540.825 10.5308 526.267 9.70374 512.17 12.2593C441.376 25.093 370.556 44.9524 308.181 82.1566C211.734 139.684 128.813 216.996 75.5903 317.463C-34.6911 525.635 -13.4009 792.131 138.559 974.58C193.554 1040.61 260.497 1096.67 338.841 1133.17C356.597 1141.44 374.2 1149.57 392.714 1155.7C401.329 1158.55 409.805 1163.9 419 1164z"/>
<path style="fill:#010101; stroke:none;" d="M250 355L251 357C219.557 357.649 189.242 387.02 195.259 419.83C199.028 440.379 214.517 455.487 233.428 462.325C248.813 467.888 265.452 460.686 280.155 456.438C301.565 450.251 324.202 446.217 346.09 442.258C400.025 432.504 455.018 431 510 431C538.924 431 568.158 430.036 596.985 432.054C686.625 438.329 773.284 458.323 858.831 486.366C880.23 493.38 904.878 503.273 924.181 514.843C939.424 523.98 958.588 537.902 977.05 538.817C1018.52 540.872 1042.37 485.521 1018.83 454.745C1006.73 438.935 988.268 431.559 971.17 422.795C950.167 412.03 928.749 401.449 906.428 392.996C893.114 387.954 878.399 379.62 864 379L864 378L866 378C848.368 370.294 828.722 366.444 810.17 361.559C776.178 352.611 742.569 345.977 708.089 339.742C605.164 321.127 494.394 316.558 390.09 329.129C356.056 333.23 321.893 339.481 288.09 346.039C275.605 348.462 262.655 354.179 250 355M370 536L370 537L372 537L372 538C343.649 538 315.053 547.393 287.83 554.559C276.289 557.598 262.211 559.293 252.745 567.115C226.949 588.433 230.057 634.953 266.09 644.156C283.889 648.702 302.326 639.904 319.17 635.441C338.978 630.192 359.939 626.834 380.09 623.259C428.435 614.683 480.732 613.204 529.996 615.018C548.17 615.688 566.528 618 585 618L585 619L583 619L583 620C629.371 620 679.272 632.658 723.911 645.089C741.546 650.001 760.682 661.211 779 662L778 664C786.648 665.102 793.344 669.741 801.289 672.634C822.866 680.493 843.553 690.781 863.537 702.042C876.389 709.285 891.982 722.607 907.83 719.741C947.762 712.518 957.549 662.804 925.714 639.289C886.572 610.377 837.092 593.594 792.286 576.375C769.653 567.677 741.487 555.203 717 555L718 553C711.599 552.929 706.1 550.24 699.911 549.039C677.558 544.702 654.896 538 632 538L632 537L634 537C618.456 530.477 595.759 532.834 579.039 530.871C538.258 526.083 494.476 524.095 453.039 527.054C425.581 529.015 397.628 536 370 536M375 729L375 730L377 730L377 731C355.663 731 334.669 736.563 313.91 740.755C301.708 743.22 285.628 743.902 275.375 751.594C250.882 769.969 257.59 808.951 289.17 814.741C302.021 817.097 320.593 809.44 333.17 806.455C357.667 800.641 384.117 797.055 409.039 794.129C453.513 788.907 500.963 785.902 545.985 789.054C564.117 790.323 582.759 791.984 600.961 794.129C613.103 795.559 624.543 798.999 637 799L636 801L705 816L705 817L703 817L703 818C717.803 818.432 737.367 827.722 750.536 834.114C757.694 837.588 765.947 842.626 774 843L773 845C795.444 847.94 813.311 874.321 836.039 875.946C846.825 876.717 852.859 871.114 862 867C863.138 862.463 867.77 858.701 869.871 854.335C872.793 848.264 872.519 839.499 871.04 833.09C867.793 819.019 855.343 813.033 844.51 805.831C819.591 789.263 791.107 779.857 764.464 766.886C724.305 747.334 678.583 738.607 635.089 730.742C577.296 720.289 517.186 715.83 458.039 720.054C430.676 722.008 402.422 729 375 729z"/>
</svg>
